<svg xmlns="http://www.w3.org/2000/svg" viewBox="0 0 140 140" width="140" height="140">
  <defs>
    <linearGradient id="brass-140" x1="0" y1="0" x2="0" y2="1">
      <stop offset="0%" stop-color="#D4A55C" />
      <stop offset="50%" stop-color="#B8864B" />
      <stop offset="100%" stop-color="#7a5430" />
    </linearGradient>
    <radialGradient id="brass-bevel-140" cx="50%" cy="50%" r="50%">
      <stop offset="85.4%" stop-color="rgba(0,0,0,0.0)" />
      <stop offset="91.3%" stop-color="rgba(0,0,0,0.45)" />
      <stop offset="92.7%" stop-color="rgba(0,0,0,0)" />
    </radialGradient>
    <filter id="outer-glow-140" x="-20%" y="-20%" width="140%" height="140%">
      <feGaussianBlur stdDeviation="1.7" />
    </filter>
  </defs>

  <!-- Outer glow -->
  <circle cx="70" cy="70" r="68.60000000000001" fill="rgba(184, 134, 75, 0.22)" filter="url(#outer-glow-140)" />

  <!-- Brass ring (annulus via two circles + even-odd fill workaround) -->
  <path d="M 70 2.799999999999997
           a 67.2 67.2 0 1 0 0.001 0 Z
           M 70 12.599999999999994
           a 57.400000000000006 57.400000000000006 0 1 1 -0.001 0 Z"
        fill="url(#brass-140)"
        fill-rule="evenodd" />

  <!-- Inner-edge bevel shadow -->
  <circle cx="70" cy="70" r="67.2" fill="url(#brass-bevel-140)" />

  <!-- Top highlight (suggests overhead light) -->
  <ellipse cx="70" cy="29.68"
           rx="30.24" ry="3.92"
           fill="rgba(255, 240, 200, 0.45)" />

  <!-- Rivets -->
  <g>
    <circle cx="70.00" cy="7.70" r="2.52" fill="#3a2818" opacity="0.75" />
    <circle cx="70.00" cy="7.70" r="1.39" fill="#D4A55C" opacity="0.95" />
    <circle cx="123.95" cy="38.85" r="2.52" fill="#3a2818" opacity="0.75" />
    <circle cx="123.95" cy="38.85" r="1.39" fill="#D4A55C" opacity="0.95" />
    <circle cx="123.95" cy="101.15" r="2.52" fill="#3a2818" opacity="0.75" />
    <circle cx="123.95" cy="101.15" r="1.39" fill="#D4A55C" opacity="0.95" />
    <circle cx="70.00" cy="132.30" r="2.52" fill="#3a2818" opacity="0.75" />
    <circle cx="70.00" cy="132.30" r="1.39" fill="#D4A55C" opacity="0.95" />
    <circle cx="16.05" cy="101.15" r="2.52" fill="#3a2818" opacity="0.75" />
    <circle cx="16.05" cy="101.15" r="1.39" fill="#D4A55C" opacity="0.95" />
    <circle cx="16.05" cy="38.85" r="2.52" fill="#3a2818" opacity="0.75" />
    <circle cx="16.05" cy="38.85" r="1.39" fill="#D4A55C" opacity="0.95" />
  </g>
</svg>