<svg xmlns="http://www.w3.org/2000/svg" viewBox="0 0 1024 1024" width="1024" height="1024" preserveAspectRatio="none">
  <defs>
    <!-- Paper grain (matches landing's feel) -->
    <filter id="g41" x="0" y="0" width="100%" height="100%">
      <feTurbulence type="fractalNoise" baseFrequency="0.85" numOctaves="2" seed="41" />
      <feColorMatrix values="0 0 0 0 0.96 0 0 0 0 0.92 0 0 0 0 0.83 0 0 0 0.08 0" />
    </filter>
    <radialGradient id="k41" cx="50%" cy="50%" r="50%">
      <stop offset="0%" stop-color="hsl(28, 22%, 12%)" />
      <stop offset="60%" stop-color="hsl(28, 22%, 22%)" />
      <stop offset="100%" stop-color="hsl(28, 22%, 32%)" stop-opacity="0" />
    </radialGradient>
    
    <linearGradient id="p41_0" x1="0" y1="0" x2="0" y2="1">
      <stop offset="0%" stop-color="hsl(29.2, 19.5%, 39.2%)" />
      <stop offset="100%" stop-color="hsl(29.2, 19.5%, 33.2%)" />
    </linearGradient>
    <linearGradient id="p41_1" x1="0" y1="0" x2="0" y2="1">
      <stop offset="0%" stop-color="hsl(33.1, 20.8%, 32.3%)" />
      <stop offset="100%" stop-color="hsl(33.1, 20.8%, 26.3%)" />
    </linearGradient>
    <linearGradient id="p41_2" x1="0" y1="0" x2="0" y2="1">
      <stop offset="0%" stop-color="hsl(32.0, 19.1%, 34.3%)" />
      <stop offset="100%" stop-color="hsl(32.0, 19.1%, 28.3%)" />
    </linearGradient>
    <linearGradient id="p41_3" x1="0" y1="0" x2="0" y2="1">
      <stop offset="0%" stop-color="hsl(32.8, 21.6%, 31.7%)" />
      <stop offset="100%" stop-color="hsl(32.8, 21.6%, 25.7%)" />
    </linearGradient>
    <linearGradient id="p41_4" x1="0" y1="0" x2="0" y2="1">
      <stop offset="0%" stop-color="hsl(32.0, 21.4%, 39.4%)" />
      <stop offset="100%" stop-color="hsl(32.0, 21.4%, 33.4%)" />
    </linearGradient>
    <linearGradient id="p41_5" x1="0" y1="0" x2="0" y2="1">
      <stop offset="0%" stop-color="hsl(31.8, 20.1%, 30.7%)" />
      <stop offset="100%" stop-color="hsl(31.8, 20.1%, 24.7%)" />
    </linearGradient>
    <linearGradient id="p41_6" x1="0" y1="0" x2="0" y2="1">
      <stop offset="0%" stop-color="hsl(30.8, 20.6%, 35.6%)" />
      <stop offset="100%" stop-color="hsl(30.8, 20.6%, 29.6%)" />
    </linearGradient>
  </defs>
  <rect x="0" y="0" width="1024" height="140" fill="url(#p41_0)" />
  <rect x="0" y="140" width="1024" height="199" fill="url(#p41_1)" />
  <rect x="0" y="339" width="1024" height="191" fill="url(#p41_2)" />
  <rect x="0" y="530" width="1024" height="134" fill="url(#p41_3)" />
  <rect x="0" y="664" width="1024" height="176" fill="url(#p41_4)" />
  <rect x="0" y="840" width="1024" height="142" fill="url(#p41_5)" />
  <rect x="0" y="982" width="1024" height="42" fill="url(#p41_6)" />
  <line x1="409" y1="93" x2="834" y2="93" stroke="hsl(28, 20%, 37.1%)" stroke-width="2.1" stroke-linecap="round" opacity="0.36" />
  <line x1="1011" y1="88" x2="957" y2="88" stroke="hsl(28, 20%, 45.0%)" stroke-width="0.8" stroke-linecap="round" opacity="0.36" />
  <line x1="901" y1="116" x2="192" y2="116" stroke="hsl(28, 20%, 40.1%)" stroke-width="1.3" stroke-linecap="round" opacity="0.31" />
  <line x1="673" y1="61" x2="454" y2="61" stroke="hsl(28, 20%, 45.1%)" stroke-width="1.3" stroke-linecap="round" opacity="0.32" />
  <line x1="290" y1="102" x2="469" y2="102" stroke="hsl(28, 20%, 44.3%)" stroke-width="2.0" stroke-linecap="round" opacity="0.36" />
  <line x1="264" y1="75" x2="574" y2="75" stroke="hsl(28, 20%, 44.7%)" stroke-width="1.7" stroke-linecap="round" opacity="0.31" />
  <line x1="381" y1="71" x2="872" y2="71" stroke="hsl(28, 20%, 31.6%)" stroke-width="0.8" stroke-linecap="round" opacity="0.34" />
  <line x1="992" y1="76" x2="508" y2="76" stroke="hsl(28, 20%, 47.1%)" stroke-width="1.5" stroke-linecap="round" opacity="0.36" />
  <line x1="579" y1="97" x2="960" y2="97" stroke="hsl(28, 20%, 33.3%)" stroke-width="1.9" stroke-linecap="round" opacity="0.38" />
  <line x1="797" y1="11" x2="270" y2="11" stroke="hsl(28, 20%, 46.2%)" stroke-width="1.1" stroke-linecap="round" opacity="0.36" />
  <line x1="455" y1="107" x2="1018" y2="107" stroke="hsl(28, 20%, 36.7%)" stroke-width="1.6" stroke-linecap="round" opacity="0.31" />
  <line x1="26" y1="31" x2="363" y2="31" stroke="hsl(28, 20%, 33.2%)" stroke-width="2.0" stroke-linecap="round" opacity="0.37" />
  <line x1="256" y1="315" x2="536" y2="315" stroke="hsl(28, 20%, 27.7%)" stroke-width="2.0" stroke-linecap="round" opacity="0.33" />
  <line x1="424" y1="334" x2="928" y2="334" stroke="hsl(28, 20%, 35.2%)" stroke-width="1.4" stroke-linecap="round" opacity="0.33" />
  <line x1="717" y1="144" x2="212" y2="144" stroke="hsl(28, 20%, 26.3%)" stroke-width="1.1" stroke-linecap="round" opacity="0.31" />
  <line x1="681" y1="228" x2="488" y2="228" stroke="hsl(28, 20%, 39.6%)" stroke-width="1.7" stroke-linecap="round" opacity="0.40" />
  <line x1="571" y1="158" x2="872" y2="158" stroke="hsl(28, 20%, 34.6%)" stroke-width="1.5" stroke-linecap="round" opacity="0.34" />
  <line x1="916" y1="160" x2="300" y2="160" stroke="hsl(28, 20%, 32.1%)" stroke-width="0.9" stroke-linecap="round" opacity="0.30" />
  <line x1="253" y1="283" x2="263" y2="283" stroke="hsl(28, 20%, 33.3%)" stroke-width="1.6" stroke-linecap="round" opacity="0.37" />
  <line x1="751" y1="170" x2="1001" y2="170" stroke="hsl(28, 20%, 26.7%)" stroke-width="1.2" stroke-linecap="round" opacity="0.31" />
  <line x1="773" y1="267" x2="192" y2="267" stroke="hsl(28, 20%, 33.4%)" stroke-width="1.2" stroke-linecap="round" opacity="0.39" />
  <line x1="881" y1="258" x2="188" y2="258" stroke="hsl(28, 20%, 26.3%)" stroke-width="2.1" stroke-linecap="round" opacity="0.33" />
  <line x1="377" y1="177" x2="1013" y2="177" stroke="hsl(28, 20%, 28.1%)" stroke-width="2.1" stroke-linecap="round" opacity="0.31" />
  <line x1="1009" y1="247" x2="313" y2="247" stroke="hsl(28, 20%, 30.6%)" stroke-width="1.3" stroke-linecap="round" opacity="0.31" />
  <line x1="438" y1="446" x2="311" y2="446" stroke="hsl(28, 20%, 33.0%)" stroke-width="1.6" stroke-linecap="round" opacity="0.35" />
  <line x1="77" y1="392" x2="776" y2="392" stroke="hsl(28, 20%, 27.3%)" stroke-width="1.7" stroke-linecap="round" opacity="0.36" />
  <line x1="271" y1="523" x2="739" y2="523" stroke="hsl(28, 20%, 36.6%)" stroke-width="1.3" stroke-linecap="round" opacity="0.34" />
  <line x1="914" y1="493" x2="97" y2="493" stroke="hsl(28, 20%, 29.6%)" stroke-width="1.2" stroke-linecap="round" opacity="0.34" />
  <line x1="63" y1="440" x2="534" y2="440" stroke="hsl(28, 20%, 34.1%)" stroke-width="1.9" stroke-linecap="round" opacity="0.35" />
  <line x1="843" y1="453" x2="280" y2="453" stroke="hsl(28, 20%, 30.8%)" stroke-width="1.7" stroke-linecap="round" opacity="0.36" />
  <line x1="713" y1="377" x2="835" y2="377" stroke="hsl(28, 20%, 29.9%)" stroke-width="1.0" stroke-linecap="round" opacity="0.33" />
  <line x1="48" y1="432" x2="107" y2="432" stroke="hsl(28, 20%, 33.7%)" stroke-width="1.5" stroke-linecap="round" opacity="0.35" />
  <line x1="477" y1="500" x2="998" y2="500" stroke="hsl(28, 20%, 37.4%)" stroke-width="2.1" stroke-linecap="round" opacity="0.37" />
  <line x1="742" y1="414" x2="151" y2="414" stroke="hsl(28, 20%, 29.7%)" stroke-width="1.6" stroke-linecap="round" opacity="0.35" />
  <line x1="300" y1="355" x2="472" y2="355" stroke="hsl(28, 20%, 40.7%)" stroke-width="1.7" stroke-linecap="round" opacity="0.33" />
  <line x1="376" y1="359" x2="331" y2="359" stroke="hsl(28, 20%, 33.9%)" stroke-width="2.0" stroke-linecap="round" opacity="0.31" />
  <line x1="532" y1="566" x2="380" y2="566" stroke="hsl(28, 20%, 39.6%)" stroke-width="1.0" stroke-linecap="round" opacity="0.32" />
  <line x1="956" y1="660" x2="974" y2="660" stroke="hsl(28, 20%, 27.5%)" stroke-width="1.2" stroke-linecap="round" opacity="0.37" />
  <line x1="862" y1="636" x2="47" y2="636" stroke="hsl(28, 20%, 26.0%)" stroke-width="2.2" stroke-linecap="round" opacity="0.34" />
  <line x1="693" y1="621" x2="792" y2="621" stroke="hsl(28, 20%, 25.7%)" stroke-width="1.8" stroke-linecap="round" opacity="0.33" />
  <line x1="471" y1="542" x2="238" y2="542" stroke="hsl(28, 20%, 38.6%)" stroke-width="1.3" stroke-linecap="round" opacity="0.36" />
  <line x1="815" y1="634" x2="21" y2="634" stroke="hsl(28, 20%, 28.0%)" stroke-width="1.0" stroke-linecap="round" opacity="0.40" />
  <line x1="191" y1="571" x2="741" y2="571" stroke="hsl(28, 20%, 34.3%)" stroke-width="1.0" stroke-linecap="round" opacity="0.33" />
  <line x1="531" y1="589" x2="90" y2="589" stroke="hsl(28, 20%, 28.5%)" stroke-width="1.7" stroke-linecap="round" opacity="0.32" />
  <line x1="252" y1="655" x2="177" y2="655" stroke="hsl(28, 20%, 39.7%)" stroke-width="1.4" stroke-linecap="round" opacity="0.35" />
  <line x1="133" y1="608" x2="330" y2="608" stroke="hsl(28, 20%, 35.6%)" stroke-width="2.0" stroke-linecap="round" opacity="0.36" />
  <line x1="895" y1="594" x2="761" y2="594" stroke="hsl(28, 20%, 33.5%)" stroke-width="2.0" stroke-linecap="round" opacity="0.34" />
  <line x1="747" y1="636" x2="503" y2="636" stroke="hsl(28, 20%, 24.4%)" stroke-width="1.6" stroke-linecap="round" opacity="0.38" />
  <line x1="171" y1="824" x2="24" y2="824" stroke="hsl(28, 20%, 36.6%)" stroke-width="1.3" stroke-linecap="round" opacity="0.35" />
  <line x1="569" y1="790" x2="20" y2="790" stroke="hsl(28, 20%, 45.2%)" stroke-width="0.9" stroke-linecap="round" opacity="0.38" />
  <line x1="676" y1="746" x2="565" y2="746" stroke="hsl(28, 20%, 43.8%)" stroke-width="1.1" stroke-linecap="round" opacity="0.35" />
  <line x1="360" y1="752" x2="420" y2="752" stroke="hsl(28, 20%, 37.4%)" stroke-width="1.1" stroke-linecap="round" opacity="0.33" />
  <line x1="186" y1="668" x2="38" y2="668" stroke="hsl(28, 20%, 36.6%)" stroke-width="1.8" stroke-linecap="round" opacity="0.33" />
  <line x1="56" y1="813" x2="399" y2="813" stroke="hsl(28, 20%, 31.9%)" stroke-width="2.0" stroke-linecap="round" opacity="0.34" />
  <line x1="349" y1="819" x2="989" y2="819" stroke="hsl(28, 20%, 43.9%)" stroke-width="2.0" stroke-linecap="round" opacity="0.35" />
  <line x1="34" y1="690" x2="1023" y2="690" stroke="hsl(28, 20%, 43.1%)" stroke-width="1.2" stroke-linecap="round" opacity="0.39" />
  <line x1="908" y1="757" x2="347" y2="757" stroke="hsl(28, 20%, 34.6%)" stroke-width="1.8" stroke-linecap="round" opacity="0.39" />
  <line x1="220" y1="766" x2="74" y2="766" stroke="hsl(28, 20%, 39.1%)" stroke-width="1.6" stroke-linecap="round" opacity="0.37" />
  <line x1="85" y1="704" x2="1020" y2="704" stroke="hsl(28, 20%, 35.0%)" stroke-width="1.8" stroke-linecap="round" opacity="0.31" />
  <line x1="276" y1="767" x2="750" y2="767" stroke="hsl(28, 20%, 44.1%)" stroke-width="1.1" stroke-linecap="round" opacity="0.34" />
  <line x1="41" y1="954" x2="838" y2="954" stroke="hsl(28, 20%, 25.6%)" stroke-width="1.9" stroke-linecap="round" opacity="0.39" />
  <line x1="207" y1="863" x2="627" y2="863" stroke="hsl(28, 20%, 31.1%)" stroke-width="1.5" stroke-linecap="round" opacity="0.32" />
  <line x1="341" y1="981" x2="654" y2="981" stroke="hsl(28, 20%, 23.1%)" stroke-width="1.7" stroke-linecap="round" opacity="0.30" />
  <line x1="501" y1="972" x2="63" y2="972" stroke="hsl(28, 20%, 27.9%)" stroke-width="1.5" stroke-linecap="round" opacity="0.36" />
  <line x1="71" y1="960" x2="541" y2="960" stroke="hsl(28, 20%, 27.0%)" stroke-width="2.0" stroke-linecap="round" opacity="0.31" />
  <line x1="295" y1="887" x2="888" y2="887" stroke="hsl(28, 20%, 34.5%)" stroke-width="1.5" stroke-linecap="round" opacity="0.38" />
  <line x1="202" y1="864" x2="14" y2="864" stroke="hsl(28, 20%, 36.7%)" stroke-width="1.9" stroke-linecap="round" opacity="0.34" />
  <line x1="853" y1="964" x2="99" y2="964" stroke="hsl(28, 20%, 31.0%)" stroke-width="1.0" stroke-linecap="round" opacity="0.33" />
  <line x1="385" y1="904" x2="992" y2="904" stroke="hsl(28, 20%, 31.8%)" stroke-width="2.1" stroke-linecap="round" opacity="0.37" />
  <line x1="836" y1="933" x2="812" y2="933" stroke="hsl(28, 20%, 26.4%)" stroke-width="1.8" stroke-linecap="round" opacity="0.36" />
  <line x1="578" y1="931" x2="432" y2="931" stroke="hsl(28, 20%, 29.0%)" stroke-width="1.4" stroke-linecap="round" opacity="0.39" />
  <line x1="381" y1="850" x2="495" y2="850" stroke="hsl(28, 20%, 30.1%)" stroke-width="2.0" stroke-linecap="round" opacity="0.31" />
  <line x1="429" y1="1024" x2="240" y2="1024" stroke="hsl(28, 20%, 34.1%)" stroke-width="2.2" stroke-linecap="round" opacity="0.31" />
  <line x1="919" y1="1007" x2="954" y2="1007" stroke="hsl(28, 20%, 42.4%)" stroke-width="1.3" stroke-linecap="round" opacity="0.38" />
  <line x1="413" y1="1018" x2="610" y2="1018" stroke="hsl(28, 20%, 37.3%)" stroke-width="1.3" stroke-linecap="round" opacity="0.31" />
  <line x1="241" y1="1009" x2="417" y2="1009" stroke="hsl(28, 20%, 33.9%)" stroke-width="1.9" stroke-linecap="round" opacity="0.31" />
  <line x1="212" y1="983" x2="879" y2="983" stroke="hsl(28, 20%, 43.4%)" stroke-width="2.1" stroke-linecap="round" opacity="0.38" />
  <line x1="668" y1="992" x2="115" y2="992" stroke="hsl(28, 20%, 34.9%)" stroke-width="1.5" stroke-linecap="round" opacity="0.37" />
  <line x1="671" y1="1000" x2="696" y2="1000" stroke="hsl(28, 20%, 41.5%)" stroke-width="1.4" stroke-linecap="round" opacity="0.35" />
  <line x1="806" y1="993" x2="126" y2="993" stroke="hsl(28, 20%, 30.4%)" stroke-width="0.9" stroke-linecap="round" opacity="0.37" />
  <line x1="157" y1="1022" x2="808" y2="1022" stroke="hsl(28, 20%, 33.8%)" stroke-width="2.1" stroke-linecap="round" opacity="0.30" />
  <line x1="840" y1="1022" x2="481" y2="1022" stroke="hsl(28, 20%, 30.8%)" stroke-width="1.7" stroke-linecap="round" opacity="0.40" />
  <line x1="307" y1="1005" x2="598" y2="1005" stroke="hsl(28, 20%, 29.5%)" stroke-width="1.3" stroke-linecap="round" opacity="0.31" />
  <line x1="319" y1="987" x2="451" y2="987" stroke="hsl(28, 20%, 30.5%)" stroke-width="2.0" stroke-linecap="round" opacity="0.31" />
  <circle cx="12" cy="30" r="12.4" fill="url(#k41)" />
  <circle cx="822" cy="6" r="8.5" fill="url(#k41)" />
  <circle cx="839" cy="169" r="11.7" fill="url(#k41)" />
  <circle cx="409" cy="380" r="9.1" fill="url(#k41)" />
  <circle cx="700" cy="559" r="16.7" fill="url(#k41)" />
  <circle cx="645" cy="573" r="13.4" fill="url(#k41)" />
  <circle cx="180" cy="829" r="8.5" fill="url(#k41)" />
  <circle cx="427" cy="901" r="10.9" fill="url(#k41)" />
  <circle cx="419" cy="978" r="7.4" fill="url(#k41)" />
  <line x1="0" y1="140" x2="1024" y2="140" stroke="rgba(20, 14, 8, 0.45)" stroke-width="2" />
  <line x1="0" y1="339" x2="1024" y2="339" stroke="rgba(20, 14, 8, 0.45)" stroke-width="2" />
  <line x1="0" y1="530" x2="1024" y2="530" stroke="rgba(20, 14, 8, 0.45)" stroke-width="2" />
  <line x1="0" y1="664" x2="1024" y2="664" stroke="rgba(20, 14, 8, 0.45)" stroke-width="2" />
  <line x1="0" y1="840" x2="1024" y2="840" stroke="rgba(20, 14, 8, 0.45)" stroke-width="2" />
  <line x1="0" y1="982" x2="1024" y2="982" stroke="rgba(20, 14, 8, 0.45)" stroke-width="2" />
  <line x1="0" y1="1024" x2="1024" y2="1024" stroke="rgba(20, 14, 8, 0.45)" stroke-width="2" />
  <rect width="1024" height="1024" filter="url(#g41)" opacity="0.55" style="mix-blend-mode: multiply" />
</svg>