<svg xmlns="http://www.w3.org/2000/svg" viewBox="0 0 1024 1024" width="1024" height="1024" preserveAspectRatio="none">
  <defs>
    <!-- Paper grain (matches landing's feel) -->
    <filter id="g23" x="0" y="0" width="100%" height="100%">
      <feTurbulence type="fractalNoise" baseFrequency="0.85" numOctaves="2" seed="23" />
      <feColorMatrix values="0 0 0 0 0.96 0 0 0 0 0.92 0 0 0 0 0.83 0 0 0 0.08 0" />
    </filter>
    <radialGradient id="k23" cx="50%" cy="50%" r="50%">
      <stop offset="0%" stop-color="hsl(28, 22%, 12%)" />
      <stop offset="60%" stop-color="hsl(28, 22%, 22%)" />
      <stop offset="100%" stop-color="hsl(28, 22%, 32%)" stop-opacity="0" />
    </radialGradient>
    
    <linearGradient id="p23_0" x1="0" y1="0" x2="0" y2="1">
      <stop offset="0%" stop-color="hsl(32.3, 18.8%, 38.8%)" />
      <stop offset="100%" stop-color="hsl(32.3, 18.8%, 32.8%)" />
    </linearGradient>
    <linearGradient id="p23_1" x1="0" y1="0" x2="0" y2="1">
      <stop offset="0%" stop-color="hsl(32.1, 20.2%, 29.5%)" />
      <stop offset="100%" stop-color="hsl(32.1, 20.2%, 23.5%)" />
    </linearGradient>
    <linearGradient id="p23_2" x1="0" y1="0" x2="0" y2="1">
      <stop offset="0%" stop-color="hsl(34.0, 18.5%, 32.4%)" />
      <stop offset="100%" stop-color="hsl(34.0, 18.5%, 26.4%)" />
    </linearGradient>
    <linearGradient id="p23_3" x1="0" y1="0" x2="0" y2="1">
      <stop offset="0%" stop-color="hsl(30.0, 19.7%, 38.9%)" />
      <stop offset="100%" stop-color="hsl(30.0, 19.7%, 32.9%)" />
    </linearGradient>
    <linearGradient id="p23_4" x1="0" y1="0" x2="0" y2="1">
      <stop offset="0%" stop-color="hsl(29.0, 19.0%, 39.1%)" />
      <stop offset="100%" stop-color="hsl(29.0, 19.0%, 33.1%)" />
    </linearGradient>
    <linearGradient id="p23_5" x1="0" y1="0" x2="0" y2="1">
      <stop offset="0%" stop-color="hsl(31.1, 21.7%, 38.7%)" />
      <stop offset="100%" stop-color="hsl(31.1, 21.7%, 32.7%)" />
    </linearGradient>
    <linearGradient id="p23_6" x1="0" y1="0" x2="0" y2="1">
      <stop offset="0%" stop-color="hsl(31.1, 20.2%, 38.8%)" />
      <stop offset="100%" stop-color="hsl(31.1, 20.2%, 32.8%)" />
    </linearGradient>
  </defs>
  <rect x="0" y="0" width="1024" height="139" fill="url(#p23_0)" />
  <rect x="0" y="139" width="1024" height="149" fill="url(#p23_1)" />
  <rect x="0" y="288" width="1024" height="165" fill="url(#p23_2)" />
  <rect x="0" y="453" width="1024" height="161" fill="url(#p23_3)" />
  <rect x="0" y="614" width="1024" height="177" fill="url(#p23_4)" />
  <rect x="0" y="791" width="1024" height="185" fill="url(#p23_5)" />
  <rect x="0" y="976" width="1024" height="48" fill="url(#p23_6)" />
  <line x1="238" y1="11" x2="500" y2="11" stroke="hsl(28, 20%, 35.0%)" stroke-width="1.9" stroke-linecap="round" opacity="0.32" />
  <line x1="236" y1="35" x2="677" y2="35" stroke="hsl(28, 20%, 37.6%)" stroke-width="0.9" stroke-linecap="round" opacity="0.35" />
  <line x1="835" y1="99" x2="918" y2="99" stroke="hsl(28, 20%, 43.1%)" stroke-width="1.4" stroke-linecap="round" opacity="0.33" />
  <line x1="82" y1="119" x2="340" y2="119" stroke="hsl(28, 20%, 39.3%)" stroke-width="1.6" stroke-linecap="round" opacity="0.33" />
  <line x1="134" y1="43" x2="869" y2="43" stroke="hsl(28, 20%, 41.1%)" stroke-width="0.9" stroke-linecap="round" opacity="0.39" />
  <line x1="75" y1="65" x2="560" y2="65" stroke="hsl(28, 20%, 46.4%)" stroke-width="1.7" stroke-linecap="round" opacity="0.31" />
  <line x1="231" y1="20" x2="509" y2="20" stroke="hsl(28, 20%, 39.8%)" stroke-width="1.7" stroke-linecap="round" opacity="0.39" />
  <line x1="62" y1="38" x2="437" y2="38" stroke="hsl(28, 20%, 40.7%)" stroke-width="0.9" stroke-linecap="round" opacity="0.35" />
  <line x1="68" y1="6" x2="332" y2="6" stroke="hsl(28, 20%, 33.0%)" stroke-width="1.8" stroke-linecap="round" opacity="0.30" />
  <line x1="958" y1="139" x2="425" y2="139" stroke="hsl(28, 20%, 31.1%)" stroke-width="0.9" stroke-linecap="round" opacity="0.36" />
  <line x1="306" y1="59" x2="740" y2="59" stroke="hsl(28, 20%, 39.9%)" stroke-width="1.6" stroke-linecap="round" opacity="0.39" />
  <line x1="667" y1="11" x2="984" y2="11" stroke="hsl(28, 20%, 37.3%)" stroke-width="2.1" stroke-linecap="round" opacity="0.33" />
  <line x1="148" y1="275" x2="542" y2="275" stroke="hsl(28, 20%, 36.4%)" stroke-width="0.9" stroke-linecap="round" opacity="0.35" />
  <line x1="863" y1="236" x2="527" y2="236" stroke="hsl(28, 20%, 35.9%)" stroke-width="0.9" stroke-linecap="round" opacity="0.31" />
  <line x1="678" y1="211" x2="38" y2="211" stroke="hsl(28, 20%, 31.4%)" stroke-width="1.8" stroke-linecap="round" opacity="0.34" />
  <line x1="622" y1="172" x2="163" y2="172" stroke="hsl(28, 20%, 22.2%)" stroke-width="1.3" stroke-linecap="round" opacity="0.35" />
  <line x1="856" y1="230" x2="953" y2="230" stroke="hsl(28, 20%, 33.2%)" stroke-width="1.7" stroke-linecap="round" opacity="0.30" />
  <line x1="872" y1="207" x2="440" y2="207" stroke="hsl(28, 20%, 28.1%)" stroke-width="1.9" stroke-linecap="round" opacity="0.35" />
  <line x1="606" y1="262" x2="76" y2="262" stroke="hsl(28, 20%, 36.7%)" stroke-width="1.9" stroke-linecap="round" opacity="0.38" />
  <line x1="558" y1="275" x2="673" y2="275" stroke="hsl(28, 20%, 27.7%)" stroke-width="1.5" stroke-linecap="round" opacity="0.34" />
  <line x1="560" y1="254" x2="917" y2="254" stroke="hsl(28, 20%, 30.3%)" stroke-width="1.8" stroke-linecap="round" opacity="0.31" />
  <line x1="423" y1="187" x2="492" y2="187" stroke="hsl(28, 20%, 26.7%)" stroke-width="1.4" stroke-linecap="round" opacity="0.31" />
  <line x1="678" y1="184" x2="41" y2="184" stroke="hsl(28, 20%, 34.3%)" stroke-width="1.8" stroke-linecap="round" opacity="0.36" />
  <line x1="254" y1="270" x2="937" y2="270" stroke="hsl(28, 20%, 22.1%)" stroke-width="0.9" stroke-linecap="round" opacity="0.36" />
  <line x1="878" y1="302" x2="729" y2="302" stroke="hsl(28, 20%, 38.1%)" stroke-width="1.6" stroke-linecap="round" opacity="0.32" />
  <line x1="322" y1="404" x2="16" y2="404" stroke="hsl(28, 20%, 32.1%)" stroke-width="1.9" stroke-linecap="round" opacity="0.38" />
  <line x1="148" y1="357" x2="63" y2="357" stroke="hsl(28, 20%, 40.3%)" stroke-width="2.1" stroke-linecap="round" opacity="0.39" />
  <line x1="816" y1="319" x2="869" y2="319" stroke="hsl(28, 20%, 25.7%)" stroke-width="1.7" stroke-linecap="round" opacity="0.38" />
  <line x1="535" y1="335" x2="809" y2="335" stroke="hsl(28, 20%, 32.6%)" stroke-width="1.8" stroke-linecap="round" opacity="0.37" />
  <line x1="213" y1="352" x2="140" y2="352" stroke="hsl(28, 20%, 25.3%)" stroke-width="2.0" stroke-linecap="round" opacity="0.33" />
  <line x1="140" y1="408" x2="165" y2="408" stroke="hsl(28, 20%, 25.5%)" stroke-width="0.9" stroke-linecap="round" opacity="0.31" />
  <line x1="192" y1="345" x2="219" y2="345" stroke="hsl(28, 20%, 34.0%)" stroke-width="0.9" stroke-linecap="round" opacity="0.37" />
  <line x1="414" y1="322" x2="53" y2="322" stroke="hsl(28, 20%, 29.1%)" stroke-width="1.7" stroke-linecap="round" opacity="0.34" />
  <line x1="180" y1="336" x2="725" y2="336" stroke="hsl(28, 20%, 37.4%)" stroke-width="1.6" stroke-linecap="round" opacity="0.33" />
  <line x1="379" y1="434" x2="36" y2="434" stroke="hsl(28, 20%, 28.9%)" stroke-width="1.0" stroke-linecap="round" opacity="0.30" />
  <line x1="1006" y1="363" x2="65" y2="363" stroke="hsl(28, 20%, 27.3%)" stroke-width="2.1" stroke-linecap="round" opacity="0.30" />
  <line x1="967" y1="458" x2="870" y2="458" stroke="hsl(28, 20%, 42.0%)" stroke-width="2.1" stroke-linecap="round" opacity="0.38" />
  <line x1="151" y1="478" x2="441" y2="478" stroke="hsl(28, 20%, 40.7%)" stroke-width="1.7" stroke-linecap="round" opacity="0.33" />
  <line x1="9" y1="560" x2="765" y2="560" stroke="hsl(28, 20%, 31.7%)" stroke-width="1.8" stroke-linecap="round" opacity="0.31" />
  <line x1="681" y1="587" x2="802" y2="587" stroke="hsl(28, 20%, 32.7%)" stroke-width="1.0" stroke-linecap="round" opacity="0.39" />
  <line x1="679" y1="552" x2="902" y2="552" stroke="hsl(28, 20%, 33.9%)" stroke-width="0.8" stroke-linecap="round" opacity="0.32" />
  <line x1="676" y1="473" x2="761" y2="473" stroke="hsl(28, 20%, 37.4%)" stroke-width="1.2" stroke-linecap="round" opacity="0.35" />
  <line x1="840" y1="580" x2="677" y2="580" stroke="hsl(28, 20%, 43.6%)" stroke-width="0.8" stroke-linecap="round" opacity="0.31" />
  <line x1="649" y1="512" x2="177" y2="512" stroke="hsl(28, 20%, 41.9%)" stroke-width="1.4" stroke-linecap="round" opacity="0.30" />
  <line x1="1022" y1="559" x2="605" y2="559" stroke="hsl(28, 20%, 32.5%)" stroke-width="0.9" stroke-linecap="round" opacity="0.38" />
  <line x1="705" y1="495" x2="632" y2="495" stroke="hsl(28, 20%, 44.8%)" stroke-width="1.3" stroke-linecap="round" opacity="0.36" />
  <line x1="239" y1="575" x2="856" y2="575" stroke="hsl(28, 20%, 33.3%)" stroke-width="1.5" stroke-linecap="round" opacity="0.39" />
  <line x1="956" y1="577" x2="159" y2="577" stroke="hsl(28, 20%, 32.1%)" stroke-width="2.0" stroke-linecap="round" opacity="0.37" />
  <line x1="926" y1="721" x2="675" y2="721" stroke="hsl(28, 20%, 31.1%)" stroke-width="1.2" stroke-linecap="round" opacity="0.39" />
  <line x1="316" y1="691" x2="134" y2="691" stroke="hsl(28, 20%, 34.1%)" stroke-width="0.9" stroke-linecap="round" opacity="0.32" />
  <line x1="566" y1="696" x2="53" y2="696" stroke="hsl(28, 20%, 40.8%)" stroke-width="1.6" stroke-linecap="round" opacity="0.30" />
  <line x1="457" y1="669" x2="756" y2="669" stroke="hsl(28, 20%, 41.1%)" stroke-width="1.5" stroke-linecap="round" opacity="0.33" />
  <line x1="655" y1="644" x2="537" y2="644" stroke="hsl(28, 20%, 31.9%)" stroke-width="2.0" stroke-linecap="round" opacity="0.38" />
  <line x1="190" y1="722" x2="850" y2="722" stroke="hsl(28, 20%, 36.3%)" stroke-width="1.4" stroke-linecap="round" opacity="0.33" />
  <line x1="765" y1="715" x2="967" y2="715" stroke="hsl(28, 20%, 39.2%)" stroke-width="1.6" stroke-linecap="round" opacity="0.34" />
  <line x1="253" y1="719" x2="537" y2="719" stroke="hsl(28, 20%, 41.1%)" stroke-width="1.8" stroke-linecap="round" opacity="0.35" />
  <line x1="633" y1="733" x2="305" y2="733" stroke="hsl(28, 20%, 35.2%)" stroke-width="1.8" stroke-linecap="round" opacity="0.38" />
  <line x1="804" y1="657" x2="458" y2="657" stroke="hsl(28, 20%, 40.4%)" stroke-width="1.7" stroke-linecap="round" opacity="0.30" />
  <line x1="508" y1="627" x2="626" y2="627" stroke="hsl(28, 20%, 42.1%)" stroke-width="1.0" stroke-linecap="round" opacity="0.33" />
  <line x1="855" y1="629" x2="945" y2="629" stroke="hsl(28, 20%, 45.7%)" stroke-width="0.9" stroke-linecap="round" opacity="0.36" />
  <line x1="62" y1="832" x2="107" y2="832" stroke="hsl(28, 20%, 43.7%)" stroke-width="1.4" stroke-linecap="round" opacity="0.30" />
  <line x1="10" y1="888" x2="107" y2="888" stroke="hsl(28, 20%, 40.9%)" stroke-width="1.8" stroke-linecap="round" opacity="0.35" />
  <line x1="710" y1="807" x2="835" y2="807" stroke="hsl(28, 20%, 43.3%)" stroke-width="1.5" stroke-linecap="round" opacity="0.31" />
  <line x1="328" y1="889" x2="344" y2="889" stroke="hsl(28, 20%, 38.7%)" stroke-width="1.2" stroke-linecap="round" opacity="0.35" />
  <line x1="199" y1="942" x2="734" y2="942" stroke="hsl(28, 20%, 32.4%)" stroke-width="2.0" stroke-linecap="round" opacity="0.35" />
  <line x1="785" y1="957" x2="558" y2="957" stroke="hsl(28, 20%, 46.6%)" stroke-width="1.0" stroke-linecap="round" opacity="0.32" />
  <line x1="280" y1="818" x2="463" y2="818" stroke="hsl(28, 20%, 35.2%)" stroke-width="1.0" stroke-linecap="round" opacity="0.30" />
  <line x1="375" y1="863" x2="510" y2="863" stroke="hsl(28, 20%, 34.9%)" stroke-width="1.2" stroke-linecap="round" opacity="0.33" />
  <line x1="904" y1="893" x2="735" y2="893" stroke="hsl(28, 20%, 35.4%)" stroke-width="1.9" stroke-linecap="round" opacity="0.34" />
  <line x1="805" y1="967" x2="40" y2="967" stroke="hsl(28, 20%, 42.0%)" stroke-width="2.0" stroke-linecap="round" opacity="0.34" />
  <line x1="884" y1="830" x2="488" y2="830" stroke="hsl(28, 20%, 38.5%)" stroke-width="1.9" stroke-linecap="round" opacity="0.34" />
  <line x1="58" y1="813" x2="916" y2="813" stroke="hsl(28, 20%, 40.9%)" stroke-width="2.2" stroke-linecap="round" opacity="0.34" />
  <line x1="900" y1="1023" x2="683" y2="1023" stroke="hsl(28, 20%, 41.5%)" stroke-width="1.2" stroke-linecap="round" opacity="0.34" />
  <line x1="203" y1="1006" x2="115" y2="1006" stroke="hsl(28, 20%, 43.1%)" stroke-width="1.3" stroke-linecap="round" opacity="0.30" />
  <line x1="941" y1="1000" x2="866" y2="1000" stroke="hsl(28, 20%, 42.3%)" stroke-width="1.5" stroke-linecap="round" opacity="0.31" />
  <line x1="415" y1="1012" x2="239" y2="1012" stroke="hsl(28, 20%, 32.1%)" stroke-width="1.0" stroke-linecap="round" opacity="0.30" />
  <line x1="272" y1="1007" x2="68" y2="1007" stroke="hsl(28, 20%, 38.3%)" stroke-width="1.8" stroke-linecap="round" opacity="0.31" />
  <line x1="585" y1="980" x2="849" y2="980" stroke="hsl(28, 20%, 31.2%)" stroke-width="1.8" stroke-linecap="round" opacity="0.32" />
  <line x1="541" y1="996" x2="79" y2="996" stroke="hsl(28, 20%, 45.6%)" stroke-width="1.7" stroke-linecap="round" opacity="0.35" />
  <line x1="372" y1="1014" x2="716" y2="1014" stroke="hsl(28, 20%, 37.8%)" stroke-width="1.0" stroke-linecap="round" opacity="0.38" />
  <line x1="216" y1="976" x2="1022" y2="976" stroke="hsl(28, 20%, 31.2%)" stroke-width="1.7" stroke-linecap="round" opacity="0.38" />
  <line x1="366" y1="1020" x2="102" y2="1020" stroke="hsl(28, 20%, 45.4%)" stroke-width="0.9" stroke-linecap="round" opacity="0.35" />
  <line x1="838" y1="1023" x2="305" y2="1023" stroke="hsl(28, 20%, 44.5%)" stroke-width="1.7" stroke-linecap="round" opacity="0.33" />
  <line x1="588" y1="1009" x2="59" y2="1009" stroke="hsl(28, 20%, 34.6%)" stroke-width="2.0" stroke-linecap="round" opacity="0.38" />
  <circle cx="911" cy="138" r="11.2" fill="url(#k23)" />
  <circle cx="378" cy="249" r="11.8" fill="url(#k23)" />
  <circle cx="673" cy="625" r="8.3" fill="url(#k23)" />
  <circle cx="606" cy="743" r="8.6" fill="url(#k23)" />
  <circle cx="688" cy="1010" r="19.7" fill="url(#k23)" />
  <line x1="0" y1="139" x2="1024" y2="139" stroke="rgba(20, 14, 8, 0.45)" stroke-width="2" />
  <line x1="0" y1="288" x2="1024" y2="288" stroke="rgba(20, 14, 8, 0.45)" stroke-width="2" />
  <line x1="0" y1="453" x2="1024" y2="453" stroke="rgba(20, 14, 8, 0.45)" stroke-width="2" />
  <line x1="0" y1="614" x2="1024" y2="614" stroke="rgba(20, 14, 8, 0.45)" stroke-width="2" />
  <line x1="0" y1="791" x2="1024" y2="791" stroke="rgba(20, 14, 8, 0.45)" stroke-width="2" />
  <line x1="0" y1="976" x2="1024" y2="976" stroke="rgba(20, 14, 8, 0.45)" stroke-width="2" />
  <line x1="0" y1="1024" x2="1024" y2="1024" stroke="rgba(20, 14, 8, 0.45)" stroke-width="2" />
  <rect width="1024" height="1024" filter="url(#g23)" opacity="0.55" style="mix-blend-mode: multiply" />
</svg>