<svg xmlns="http://www.w3.org/2000/svg" viewBox="0 0 1024 1024" width="1024" height="1024" preserveAspectRatio="none">
  <defs>
    <!-- Paper grain (matches landing's feel) -->
    <filter id="g11" x="0" y="0" width="100%" height="100%">
      <feTurbulence type="fractalNoise" baseFrequency="0.85" numOctaves="2" seed="11" />
      <feColorMatrix values="0 0 0 0 0.96 0 0 0 0 0.92 0 0 0 0 0.83 0 0 0 0.08 0" />
    </filter>
    <radialGradient id="k11" cx="50%" cy="50%" r="50%">
      <stop offset="0%" stop-color="hsl(28, 22%, 12%)" />
      <stop offset="60%" stop-color="hsl(28, 22%, 22%)" />
      <stop offset="100%" stop-color="hsl(28, 22%, 32%)" stop-opacity="0" />
    </radialGradient>
    
    <linearGradient id="p11_0" x1="0" y1="0" x2="0" y2="1">
      <stop offset="0%" stop-color="hsl(32.3, 18.4%, 30.6%)" />
      <stop offset="100%" stop-color="hsl(32.3, 18.4%, 24.6%)" />
    </linearGradient>
    <linearGradient id="p11_1" x1="0" y1="0" x2="0" y2="1">
      <stop offset="0%" stop-color="hsl(29.9, 21.9%, 34.6%)" />
      <stop offset="100%" stop-color="hsl(29.9, 21.9%, 28.6%)" />
    </linearGradient>
    <linearGradient id="p11_2" x1="0" y1="0" x2="0" y2="1">
      <stop offset="0%" stop-color="hsl(33.8, 21.2%, 29.1%)" />
      <stop offset="100%" stop-color="hsl(33.8, 21.2%, 23.1%)" />
    </linearGradient>
    <linearGradient id="p11_3" x1="0" y1="0" x2="0" y2="1">
      <stop offset="0%" stop-color="hsl(31.4, 19.1%, 35.5%)" />
      <stop offset="100%" stop-color="hsl(31.4, 19.1%, 29.5%)" />
    </linearGradient>
    <linearGradient id="p11_4" x1="0" y1="0" x2="0" y2="1">
      <stop offset="0%" stop-color="hsl(33.1, 20.6%, 39.6%)" />
      <stop offset="100%" stop-color="hsl(33.1, 20.6%, 33.6%)" />
    </linearGradient>
    <linearGradient id="p11_5" x1="0" y1="0" x2="0" y2="1">
      <stop offset="0%" stop-color="hsl(33.4, 21.8%, 32.5%)" />
      <stop offset="100%" stop-color="hsl(33.4, 21.8%, 26.5%)" />
    </linearGradient>
    <linearGradient id="p11_6" x1="0" y1="0" x2="0" y2="1">
      <stop offset="0%" stop-color="hsl(31.6, 19.2%, 39.5%)" />
      <stop offset="100%" stop-color="hsl(31.6, 19.2%, 33.5%)" />
    </linearGradient>
  </defs>
  <rect x="0" y="0" width="1024" height="139" fill="url(#p11_0)" />
  <rect x="0" y="139" width="1024" height="142" fill="url(#p11_1)" />
  <rect x="0" y="281" width="1024" height="148" fill="url(#p11_2)" />
  <rect x="0" y="429" width="1024" height="126" fill="url(#p11_3)" />
  <rect x="0" y="555" width="1024" height="177" fill="url(#p11_4)" />
  <rect x="0" y="732" width="1024" height="187" fill="url(#p11_5)" />
  <rect x="0" y="919" width="1024" height="105" fill="url(#p11_6)" />
  <line x1="807" y1="50" x2="277" y2="50" stroke="hsl(28, 20%, 30.9%)" stroke-width="1.3" stroke-linecap="round" opacity="0.36" />
  <line x1="402" y1="93" x2="490" y2="93" stroke="hsl(28, 20%, 24.6%)" stroke-width="1.4" stroke-linecap="round" opacity="0.37" />
  <line x1="791" y1="42" x2="37" y2="42" stroke="hsl(28, 20%, 31.8%)" stroke-width="1.0" stroke-linecap="round" opacity="0.31" />
  <line x1="370" y1="112" x2="946" y2="112" stroke="hsl(28, 20%, 38.0%)" stroke-width="1.8" stroke-linecap="round" opacity="0.30" />
  <line x1="371" y1="4" x2="794" y2="4" stroke="hsl(28, 20%, 36.3%)" stroke-width="1.1" stroke-linecap="round" opacity="0.32" />
  <line x1="290" y1="104" x2="892" y2="104" stroke="hsl(28, 20%, 34.2%)" stroke-width="2.1" stroke-linecap="round" opacity="0.32" />
  <line x1="473" y1="79" x2="608" y2="79" stroke="hsl(28, 20%, 26.6%)" stroke-width="1.4" stroke-linecap="round" opacity="0.36" />
  <line x1="466" y1="105" x2="48" y2="105" stroke="hsl(28, 20%, 23.1%)" stroke-width="1.0" stroke-linecap="round" opacity="0.37" />
  <line x1="410" y1="39" x2="597" y2="39" stroke="hsl(28, 20%, 24.9%)" stroke-width="2.2" stroke-linecap="round" opacity="0.32" />
  <line x1="41" y1="39" x2="528" y2="39" stroke="hsl(28, 20%, 34.3%)" stroke-width="1.3" stroke-linecap="round" opacity="0.35" />
  <line x1="207" y1="27" x2="555" y2="27" stroke="hsl(28, 20%, 28.7%)" stroke-width="1.7" stroke-linecap="round" opacity="0.31" />
  <line x1="70" y1="136" x2="715" y2="136" stroke="hsl(28, 20%, 26.7%)" stroke-width="0.8" stroke-linecap="round" opacity="0.34" />
  <line x1="720" y1="144" x2="864" y2="144" stroke="hsl(28, 20%, 32.7%)" stroke-width="1.7" stroke-linecap="round" opacity="0.32" />
  <line x1="396" y1="208" x2="917" y2="208" stroke="hsl(28, 20%, 36.5%)" stroke-width="2.1" stroke-linecap="round" opacity="0.39" />
  <line x1="234" y1="204" x2="622" y2="204" stroke="hsl(28, 20%, 37.6%)" stroke-width="1.0" stroke-linecap="round" opacity="0.33" />
  <line x1="241" y1="234" x2="535" y2="234" stroke="hsl(28, 20%, 36.4%)" stroke-width="1.5" stroke-linecap="round" opacity="0.39" />
  <line x1="643" y1="153" x2="566" y2="153" stroke="hsl(28, 20%, 38.0%)" stroke-width="1.9" stroke-linecap="round" opacity="0.37" />
  <line x1="183" y1="190" x2="444" y2="190" stroke="hsl(28, 20%, 26.6%)" stroke-width="0.9" stroke-linecap="round" opacity="0.31" />
  <line x1="94" y1="270" x2="594" y2="270" stroke="hsl(28, 20%, 32.8%)" stroke-width="1.4" stroke-linecap="round" opacity="0.39" />
  <line x1="428" y1="247" x2="926" y2="247" stroke="hsl(28, 20%, 29.0%)" stroke-width="1.4" stroke-linecap="round" opacity="0.37" />
  <line x1="497" y1="159" x2="383" y2="159" stroke="hsl(28, 20%, 34.9%)" stroke-width="1.3" stroke-linecap="round" opacity="0.35" />
  <line x1="422" y1="224" x2="647" y2="224" stroke="hsl(28, 20%, 34.6%)" stroke-width="1.2" stroke-linecap="round" opacity="0.35" />
  <line x1="653" y1="240" x2="689" y2="240" stroke="hsl(28, 20%, 38.6%)" stroke-width="1.9" stroke-linecap="round" opacity="0.33" />
  <line x1="87" y1="228" x2="734" y2="228" stroke="hsl(28, 20%, 31.5%)" stroke-width="1.6" stroke-linecap="round" opacity="0.37" />
  <line x1="1004" y1="314" x2="870" y2="314" stroke="hsl(28, 20%, 25.6%)" stroke-width="1.4" stroke-linecap="round" opacity="0.40" />
  <line x1="138" y1="303" x2="519" y2="303" stroke="hsl(28, 20%, 35.4%)" stroke-width="1.7" stroke-linecap="round" opacity="0.36" />
  <line x1="88" y1="289" x2="806" y2="289" stroke="hsl(28, 20%, 37.0%)" stroke-width="0.8" stroke-linecap="round" opacity="0.35" />
  <line x1="144" y1="284" x2="427" y2="284" stroke="hsl(28, 20%, 30.0%)" stroke-width="1.0" stroke-linecap="round" opacity="0.32" />
  <line x1="209" y1="330" x2="280" y2="330" stroke="hsl(28, 20%, 31.9%)" stroke-width="1.0" stroke-linecap="round" opacity="0.36" />
  <line x1="493" y1="329" x2="182" y2="329" stroke="hsl(28, 20%, 36.8%)" stroke-width="1.8" stroke-linecap="round" opacity="0.37" />
  <line x1="212" y1="404" x2="668" y2="404" stroke="hsl(28, 20%, 21.5%)" stroke-width="1.1" stroke-linecap="round" opacity="0.30" />
  <line x1="669" y1="357" x2="590" y2="357" stroke="hsl(28, 20%, 33.4%)" stroke-width="1.6" stroke-linecap="round" opacity="0.39" />
  <line x1="645" y1="382" x2="394" y2="382" stroke="hsl(28, 20%, 32.3%)" stroke-width="1.9" stroke-linecap="round" opacity="0.31" />
  <line x1="522" y1="290" x2="970" y2="290" stroke="hsl(28, 20%, 32.2%)" stroke-width="1.1" stroke-linecap="round" opacity="0.39" />
  <line x1="893" y1="284" x2="368" y2="284" stroke="hsl(28, 20%, 37.1%)" stroke-width="1.7" stroke-linecap="round" opacity="0.39" />
  <line x1="963" y1="318" x2="446" y2="318" stroke="hsl(28, 20%, 28.9%)" stroke-width="1.3" stroke-linecap="round" opacity="0.37" />
  <line x1="656" y1="554" x2="280" y2="554" stroke="hsl(28, 20%, 36.4%)" stroke-width="0.8" stroke-linecap="round" opacity="0.38" />
  <line x1="239" y1="439" x2="823" y2="439" stroke="hsl(28, 20%, 38.5%)" stroke-width="2.1" stroke-linecap="round" opacity="0.39" />
  <line x1="60" y1="487" x2="283" y2="487" stroke="hsl(28, 20%, 31.6%)" stroke-width="2.2" stroke-linecap="round" opacity="0.34" />
  <line x1="560" y1="496" x2="623" y2="496" stroke="hsl(28, 20%, 28.9%)" stroke-width="2.0" stroke-linecap="round" opacity="0.35" />
  <line x1="1012" y1="459" x2="976" y2="459" stroke="hsl(28, 20%, 36.6%)" stroke-width="2.1" stroke-linecap="round" opacity="0.39" />
  <line x1="812" y1="531" x2="427" y2="531" stroke="hsl(28, 20%, 28.4%)" stroke-width="1.6" stroke-linecap="round" opacity="0.35" />
  <line x1="857" y1="488" x2="772" y2="488" stroke="hsl(28, 20%, 40.5%)" stroke-width="1.2" stroke-linecap="round" opacity="0.31" />
  <line x1="954" y1="480" x2="824" y2="480" stroke="hsl(28, 20%, 28.1%)" stroke-width="1.7" stroke-linecap="round" opacity="0.39" />
  <line x1="1008" y1="489" x2="948" y2="489" stroke="hsl(28, 20%, 37.6%)" stroke-width="1.8" stroke-linecap="round" opacity="0.39" />
  <line x1="324" y1="447" x2="595" y2="447" stroke="hsl(28, 20%, 29.4%)" stroke-width="0.8" stroke-linecap="round" opacity="0.34" />
  <line x1="651" y1="539" x2="866" y2="539" stroke="hsl(28, 20%, 34.3%)" stroke-width="2.0" stroke-linecap="round" opacity="0.34" />
  <line x1="315" y1="466" x2="781" y2="466" stroke="hsl(28, 20%, 28.4%)" stroke-width="1.1" stroke-linecap="round" opacity="0.32" />
  <line x1="189" y1="589" x2="314" y2="589" stroke="hsl(28, 20%, 33.1%)" stroke-width="1.8" stroke-linecap="round" opacity="0.30" />
  <line x1="451" y1="571" x2="631" y2="571" stroke="hsl(28, 20%, 39.3%)" stroke-width="2.2" stroke-linecap="round" opacity="0.34" />
  <line x1="856" y1="695" x2="702" y2="695" stroke="hsl(28, 20%, 43.0%)" stroke-width="0.8" stroke-linecap="round" opacity="0.39" />
  <line x1="385" y1="638" x2="486" y2="638" stroke="hsl(28, 20%, 36.3%)" stroke-width="1.2" stroke-linecap="round" opacity="0.35" />
  <line x1="314" y1="595" x2="680" y2="595" stroke="hsl(28, 20%, 43.5%)" stroke-width="1.4" stroke-linecap="round" opacity="0.34" />
  <line x1="697" y1="607" x2="902" y2="607" stroke="hsl(28, 20%, 44.3%)" stroke-width="0.9" stroke-linecap="round" opacity="0.32" />
  <line x1="959" y1="725" x2="563" y2="725" stroke="hsl(28, 20%, 43.0%)" stroke-width="2.0" stroke-linecap="round" opacity="0.33" />
  <line x1="774" y1="559" x2="925" y2="559" stroke="hsl(28, 20%, 44.5%)" stroke-width="1.6" stroke-linecap="round" opacity="0.35" />
  <line x1="548" y1="656" x2="991" y2="656" stroke="hsl(28, 20%, 41.6%)" stroke-width="1.2" stroke-linecap="round" opacity="0.37" />
  <line x1="315" y1="699" x2="602" y2="699" stroke="hsl(28, 20%, 40.7%)" stroke-width="1.9" stroke-linecap="round" opacity="0.38" />
  <line x1="790" y1="556" x2="402" y2="556" stroke="hsl(28, 20%, 41.0%)" stroke-width="1.0" stroke-linecap="round" opacity="0.35" />
  <line x1="431" y1="649" x2="36" y2="649" stroke="hsl(28, 20%, 35.5%)" stroke-width="1.9" stroke-linecap="round" opacity="0.33" />
  <line x1="399" y1="802" x2="830" y2="802" stroke="hsl(28, 20%, 38.2%)" stroke-width="2.1" stroke-linecap="round" opacity="0.39" />
  <line x1="603" y1="793" x2="393" y2="793" stroke="hsl(28, 20%, 29.8%)" stroke-width="2.2" stroke-linecap="round" opacity="0.34" />
  <line x1="522" y1="767" x2="0" y2="767" stroke="hsl(28, 20%, 25.0%)" stroke-width="1.2" stroke-linecap="round" opacity="0.37" />
  <line x1="10" y1="770" x2="384" y2="770" stroke="hsl(28, 20%, 27.4%)" stroke-width="2.0" stroke-linecap="round" opacity="0.34" />
  <line x1="1020" y1="763" x2="406" y2="763" stroke="hsl(28, 20%, 34.7%)" stroke-width="1.4" stroke-linecap="round" opacity="0.35" />
  <line x1="380" y1="773" x2="12" y2="773" stroke="hsl(28, 20%, 30.7%)" stroke-width="1.6" stroke-linecap="round" opacity="0.35" />
  <line x1="122" y1="748" x2="517" y2="748" stroke="hsl(28, 20%, 28.9%)" stroke-width="1.0" stroke-linecap="round" opacity="0.33" />
  <line x1="52" y1="840" x2="39" y2="840" stroke="hsl(28, 20%, 31.7%)" stroke-width="1.7" stroke-linecap="round" opacity="0.36" />
  <line x1="871" y1="792" x2="786" y2="792" stroke="hsl(28, 20%, 28.0%)" stroke-width="2.1" stroke-linecap="round" opacity="0.40" />
  <line x1="716" y1="902" x2="267" y2="902" stroke="hsl(28, 20%, 29.2%)" stroke-width="2.0" stroke-linecap="round" opacity="0.32" />
  <line x1="682" y1="833" x2="777" y2="833" stroke="hsl(28, 20%, 30.7%)" stroke-width="1.9" stroke-linecap="round" opacity="0.37" />
  <line x1="142" y1="865" x2="769" y2="865" stroke="hsl(28, 20%, 34.1%)" stroke-width="1.4" stroke-linecap="round" opacity="0.34" />
  <line x1="596" y1="1011" x2="468" y2="1011" stroke="hsl(28, 20%, 39.8%)" stroke-width="1.9" stroke-linecap="round" opacity="0.39" />
  <line x1="670" y1="923" x2="657" y2="923" stroke="hsl(28, 20%, 38.5%)" stroke-width="0.8" stroke-linecap="round" opacity="0.36" />
  <line x1="506" y1="965" x2="45" y2="965" stroke="hsl(28, 20%, 35.0%)" stroke-width="1.2" stroke-linecap="round" opacity="0.33" />
  <line x1="540" y1="927" x2="962" y2="927" stroke="hsl(28, 20%, 47.3%)" stroke-width="2.2" stroke-linecap="round" opacity="0.40" />
  <line x1="70" y1="1006" x2="517" y2="1006" stroke="hsl(28, 20%, 38.9%)" stroke-width="2.1" stroke-linecap="round" opacity="0.31" />
  <line x1="207" y1="1012" x2="595" y2="1012" stroke="hsl(28, 20%, 41.6%)" stroke-width="1.7" stroke-linecap="round" opacity="0.39" />
  <line x1="290" y1="1019" x2="168" y2="1019" stroke="hsl(28, 20%, 45.5%)" stroke-width="0.9" stroke-linecap="round" opacity="0.35" />
  <line x1="197" y1="948" x2="274" y2="948" stroke="hsl(28, 20%, 45.4%)" stroke-width="2.2" stroke-linecap="round" opacity="0.31" />
  <line x1="578" y1="959" x2="672" y2="959" stroke="hsl(28, 20%, 46.0%)" stroke-width="2.0" stroke-linecap="round" opacity="0.37" />
  <line x1="426" y1="921" x2="1000" y2="921" stroke="hsl(28, 20%, 42.3%)" stroke-width="1.5" stroke-linecap="round" opacity="0.40" />
  <line x1="694" y1="945" x2="480" y2="945" stroke="hsl(28, 20%, 45.1%)" stroke-width="1.8" stroke-linecap="round" opacity="0.32" />
  <line x1="455" y1="958" x2="904" y2="958" stroke="hsl(28, 20%, 46.6%)" stroke-width="0.9" stroke-linecap="round" opacity="0.31" />
  <circle cx="868" cy="159" r="16.7" fill="url(#k11)" />
  <circle cx="479" cy="349" r="17.0" fill="url(#k11)" />
  <circle cx="418" cy="522" r="16.3" fill="url(#k11)" />
  <circle cx="734" cy="788" r="12.9" fill="url(#k11)" />
  <circle cx="966" cy="978" r="17.7" fill="url(#k11)" />
  <line x1="0" y1="139" x2="1024" y2="139" stroke="rgba(20, 14, 8, 0.45)" stroke-width="2" />
  <line x1="0" y1="281" x2="1024" y2="281" stroke="rgba(20, 14, 8, 0.45)" stroke-width="2" />
  <line x1="0" y1="429" x2="1024" y2="429" stroke="rgba(20, 14, 8, 0.45)" stroke-width="2" />
  <line x1="0" y1="555" x2="1024" y2="555" stroke="rgba(20, 14, 8, 0.45)" stroke-width="2" />
  <line x1="0" y1="732" x2="1024" y2="732" stroke="rgba(20, 14, 8, 0.45)" stroke-width="2" />
  <line x1="0" y1="919" x2="1024" y2="919" stroke="rgba(20, 14, 8, 0.45)" stroke-width="2" />
  <line x1="0" y1="1024" x2="1024" y2="1024" stroke="rgba(20, 14, 8, 0.45)" stroke-width="2" />
  <rect width="1024" height="1024" filter="url(#g11)" opacity="0.55" style="mix-blend-mode: multiply" />
</svg>